  0
SECTION
  2
HEADER
  9
$ACADVER
  1
AC1009
  9
$INSBASE
 10
0.0
 20
0.0
 30
0.0
  9
$EXTMIN
 10
0.0
 20
0.0
 30
0.0
  9
$EXTMAX
 10
100.0
 20
100.0
 30
0.0
  9
$UNITMODE
 70
0
  9
$AUNITS
 70
0
  9
$ANGBASE
 50
0.0
  9
$ANGDIR
 70
0
  0
ENDSEC
  0
SECTION
  2
TABLES
  0
TABLE
  2
LTYPE
 70
19
  0
LTYPE
  2
CONTINUOUS
 70
0
  3
Solid
 72
65
 73
0
 40
0.0
  0
LTYPE
  2
CENTER
 70
0
  3
Center ____ _ ____ _ ____ _ ____ _ ____ _ ____
 72
65
 73
4
 40
2.0
 49
1.25
 49
-0.25
 49
0.25
 49
-0.25
  0
LTYPE
  2
CENTERX2
 70
0
  3
Center (2x) ________  __  ________  __  ________
 72
65
 73
4
 40
3.5
 49
2.5
 49
-0.25
 49
0.5
 49
-0.25
  0
LTYPE
  2
CENTER2
 70
0
  3
Center (.5x) ____ _ ____ _ ____ _ ____ _ ____
 72
65
 73
4
 40
1.0
 49
0.625
 49
-0.125
 49
0.125
 49
-0.125
  0
LTYPE
  2
DASHED
 70
0
  3
Dashed __ __ __ __ __ __ __ __ __ __ __ __ __ _
 72
65
 73
2
 40
0.6
 49
0.5
 49
-0.1
  0
LTYPE
  2
DASHEDX2
 70
0
  3
Dashed (2x) ____  ____  ____  ____  ____  ____
 72
65
 73
2
 40
1.2
 49
1.0
 49
-0.2
  0
LTYPE
  2
DASHED2
 70
0
  3
Dashed (.5x) _ _ _ _ _ _ _ _ _ _ _ _ _ _
 72
65
 73
2
 40
0.3
 49
0.25
 49
-0.05
  0
LTYPE
  2
PHANTOM
 70
0
  3
Phantom ______  __  __  ______  __  __  ______
 72
65
 73
6
 40
2.5
 49
1.25
 49
-0.25
 49
0.25
 49
-0.25
 49
0.25
 49
-0.25
  0
LTYPE
  2
PHANTOMX2
 70
0
  3
Phantom (2x)____________    ____    ____    ____________
 72
65
 73
6
 40
4.25
 49
2.5
 49
-0.25
 49
0.5
 49
-0.25
 49
0.5
 49
-0.25
  0
LTYPE
  2
PHANTOM2
 70
0
  3
Phantom (.5x) ___ _ _ ___ _ _ ___ _ _ ___ _ _ ___
 72
65
 73
6
 40
1.25
 49
0.625
 49
-0.125
 49
0.125
 49
-0.125
 49
0.125
 49
-0.125
  0
LTYPE
  2
DASHDOT
 70
0
  3
Dash dot __ . __ . __ . __ . __ . __ . __ . __
 72
65
 73
4
 40
1.4
 49
1.0
 49
-0.2
 49
0.0
 49
-0.2
  0
LTYPE
  2
DASHDOTX2
 70
0
  3
Dash dot (2x) ____  .  ____  .  ____  .  ____
 72
65
 73
4
 40
2.4
 49
2.0
 49
-0.2
 49
0.0
 49
-0.2
  0
LTYPE
  2
DASHDOT2
 70
0
  3
Dash dot (.5x) _ . _ . _ . _ . _ . _ . _ . _
 72
65
 73
4
 40
0.7
 49
0.5
 49
-0.1
 49
0.0
 49
-0.1
  0
LTYPE
  2
DOT
 70
0
  3
Dot .  .  .  .  .  .  .  .  .  .  .  .  .  .  .  .
 72
65
 73
2
 40
0.2
 49
0.0
 49
-0.2
  0
LTYPE
  2
DOTX2
 70
0
  3
Dot (2x) .    .    .    .    .    .    .    . 
 72
65
 73
2
 40
0.4
 49
0.0
 49
-0.4
  0
LTYPE
  2
DOT2
 70
0
  3
Dot (.5) . . . . . . . . . . . . . . . . . . . 
 72
65
 73
2
 40
0.1
 49
0.0
 49
-0.1
  0
LTYPE
  2
DIVIDE
 70
0
  3
Divide __ . . __ . . __ . . __ . . __ . . __
 72
65
 73
6
 40
1.6
 49
1.0
 49
-0.2
 49
0.0
 49
-0.2
 49
0.0
 49
-0.2
  0
LTYPE
  2
DIVIDEX2
 70
0
  3
Divide (2x) ____  . .  ____  . .  ____  . .  ____
 72
65
 73
6
 40
2.6
 49
2.0
 49
-0.2
 49
0.0
 49
-0.2
 49
0.0
 49
-0.2
  0
LTYPE
  2
DIVIDE2
 70
0
  3
Divide(.5x) _ . _ . _ . _ . _ . _ . _ . _
 72
65
 73
6
 40
0.8
 49
0.5
 49
-0.1
 49
0.0
 49
-0.1
 49
0.0
 49
-0.1
  0
ENDTAB
  0
TABLE
  2
LAYER
 70
6
  0
LAYER
  2
DIMENSIONS
 70
0
 62
1
  6
CONTINUOUS
  0
LAYER
  2
TABLEBACKGROUND
 70
0
 62
1
  6
CONTINUOUS
  0
LAYER
  2
TABLECONTENT
 70
0
 62
1
  6
CONTINUOUS
  0
LAYER
  2
TABLEGRID
 70
0
 62
1
  6
CONTINUOUS
  0
LAYER
  2
VIEWPORTS
 70
0
 62
7
  6
CONTINUOUS
  0
LAYER
  2
LINES
 70
0
 62
1
  6
CONTINUOUS
  0
ENDTAB
  0
TABLE
  2
STYLE
 70
12
  0
STYLE
  2
STANDARD
 70
0
 40
0.0
 41
1.0
 42
1.0
 50
0.0
 71
0
  3
arial.ttf
  4

  0
STYLE
  2
ARIAL
 70
0
 40
0.0
 41
1.0
 42
1.0
 50
0.0
 71
0
  3
arial.ttf
  4

  0
STYLE
  2
ARIAL_BOLD
 70
0
 40
0.0
 41
1.0
 42
1.0
 50
0.0
 71
0
  3
arialbd.ttf
  4

  0
STYLE
  2
ARIAL_ITALIC
 70
0
 40
0.0
 41
1.0
 42
1.0
 50
0.0
 71
0
  3
ariali.ttf
  4

  0
STYLE
  2
ARIAL_BOLD_ITALIC
 70
0
 40
0.0
 41
1.0
 42
1.0
 50
0.0
 71
0
  3
arialbi.ttf
  4

  0
STYLE
  2
ARIAL_BLACK
 70
0
 40
0.0
 41
1.0
 42
1.0
 50
0.0
 71
0
  3
ariblk.ttf
  4

  0
STYLE
  2
ISOCPEUR
 70
0
 40
0.0
 41
1.0
 42
1.0
 50
0.0
 71
0
  3
isocpeur.ttf
  4

  0
STYLE
  2
ISOCPEUR_ITALIC
 70
0
 40
0.0
 41
1.0
 42
1.0
 50
0.0
 71
0
  3
isocpeui.ttf
  4

  0
STYLE
  2
TIMES
 70
0
 40
0.0
 41
1.0
 42
1.0
 50
0.0
 71
0
  3
times.ttf
  4

  0
STYLE
  2
TIMES_BOLD
 70
0
 40
0.0
 41
1.0
 42
1.0
 50
0.0
 71
0
  3
timesbd.ttf
  4

  0
STYLE
  2
TIMES_ITALIC
 70
0
 40
0.0
 41
1.0
 42
1.0
 50
0.0
 71
0
  3
timesi.ttf
  4

  0
STYLE
  2
TIMES_BOLD_ITALIC
 70
0
 40
0.0
 41
1.0
 42
1.0
 50
0.0
 71
0
  3
timesbi.ttf
  4

  0
ENDTAB
  0
TABLE
  2
VIEW
 70
0
  0
ENDTAB
  0
TABLE
  2
APPID
 70
1
  0
APPID
  2
DXFWRITE
 70
0
  0
ENDTAB
  0
TABLE
  2
VPORT
 70
0
  0
ENDTAB
  0
TABLE
  2
UCS
 70
0
  0
ENDTAB
  0
ENDSEC
  0
SECTION
  2
BLOCKS
  0
ENDSEC
  0
SECTION
  2
ENTITIES
  0
VIEWPORT
  8
VIEWPORTS
 67
1
 10
0.0
 20
0.0
 30
0.0
 40
1.0
 41
1.0
 68
1
 69
1
1001
ACAD
1000
MVIEW
1002
{
1070
16
1010
0.0
1020
0.0
1030
0.0
1010
0.0
1020
0.0
1030
0.0
1040
0.0
1040
1.0
1040
0.0
1040
0.0
1040
50.0
1040
0.0
1040
0.0
1070
0
1070
100
1070
1
1070
3
1070
0
1070
0
1070
0
1070
0
1040
0.0
1040
0.0
1040
0.0
1040
0.1
1040
0.1
1040
0.1
1040
0.1
1070
0
1002
{
1002
}
1002
}
  0
POLYLINE
 62
7
  8
LINES
 66
1
 10
0.0
 20
0.0
 30
0.0
 70
8
  0
VERTEX
  8
LINES
 10
9.798
 20
0.748
 30
0.0
  0
VERTEX
  8
LINES
 10
8.74
 20
0.675
 30
0.0
  0
VERTEX
  8
LINES
 10
5.88
 20
0.502
 30
0.0
  0
VERTEX
  8
LINES
 10
4.389
 20
0.399
 30
0.0
  0
VERTEX
  8
LINES
 10
2.277
 20
0.206
 30
0.0
  0
VERTEX
  8
LINES
 10
0.478
 20
0.03
 30
0.0
  0
VERTEX
  8
LINES
 10
0.478
 20
0.03
 30
0.0
  0
VERTEX
  8
LINES
 10
0.167
 20
0.0
 30
0.0
  0
VERTEX
  8
LINES
 10
0.164
 20
0.282
 30
0.0
  0
VERTEX
  8
LINES
 10
0.163
 20
0.312
 30
0.0
  0
VERTEX
  8
LINES
 10
0.163
 20
0.312
 30
0.0
  0
VERTEX
  8
LINES
 10
0.151
 20
1.402
 30
0.0
  0
VERTEX
  8
LINES
 10
0.143
 20
2.103
 30
0.0
  0
VERTEX
  8
LINES
 10
0.111
 20
3.443
 30
0.0
  0
VERTEX
  8
LINES
 10
0.088
 20
4.008
 30
0.0
  0
VERTEX
  8
LINES
 10
0.053
 20
4.569
 30
0.0
  0
VERTEX
  8
LINES
 10
0.013
 20
5.372
 30
0.0
  0
VERTEX
  8
LINES
 10
0.013
 20
5.372
 30
0.0
  0
VERTEX
  8
LINES
 10
0.011
 20
5.397
 30
0.0
  0
VERTEX
  8
LINES
 10
0.0
 20
5.704
 30
0.0
  0
VERTEX
  8
LINES
 10
7.277
 20
5.826
 30
0.0
  0
VERTEX
  8
LINES
 10
0.002
 20
5.732
 30
0.0
  0
VERTEX
  8
LINES
 10
0.037
 20
6.075
 30
0.0
  0
VERTEX
  8
LINES
 10
0.043
 20
6.121
 30
0.0
  0
VERTEX
  8
LINES
 10
0.043
 20
6.121
 30
0.0
  0
VERTEX
  8
LINES
 10
0.093
 20
6.561
 30
0.0
  0
VERTEX
  8
LINES
 10
0.136
 20
7.197
 30
0.0
  0
VERTEX
  8
LINES
 10
0.197
 20
8.642
 30
0.0
  0
VERTEX
  8
LINES
 10
0.215
 20
9.454
 30
0.0
  0
VERTEX
  8
LINES
 10
0.235
 20
9.971
 30
0.0
  0
VERTEX
  8
LINES
 10
0.247
 20
10.827
 30
0.0
  0
VERTEX
  8
LINES
 10
0.247
 20
10.827
 30
0.0
  0
VERTEX
  8
LINES
 10
0.249
 20
11.004
 30
0.0
  0
VERTEX
  8
LINES
 10
0.561
 20
11.005
 30
0.0
  0
VERTEX
  8
LINES
 10
0.561
 20
11.005
 30
0.0
  0
VERTEX
  8
LINES
 10
2.155
 20
11.008
 30
0.0
  0
VERTEX
  8
LINES
 10
3.827
 20
11.01
 30
0.0
  0
VERTEX
  8
LINES
 10
5.543
 20
11.009
 30
0.0
  0
VERTEX
  8
LINES
 10
6.714
 20
11.008
 30
0.0
  0
VERTEX
  8
LINES
 10
9.622
 20
11.005
 30
0.0
  0
VERTEX
  8
LINES
 10
10.458
 20
11.004
 30
0.0
  0
VERTEX
  8
LINES
 10
10.458
 20
11.004
 30
0.0
  0
VERTEX
  8
LINES
 10
11.204
 20
11.061
 30
0.0
  0
VERTEX
  8
LINES
 10
12.102
 20
11.178
 30
0.0
  0
VERTEX
  8
LINES
 10
12.995
 20
11.307
 30
0.0
  0
VERTEX
  8
LINES
 10
14.087
 20
11.464
 30
0.0
  0
VERTEX
  8
LINES
 10
15.178
 20
11.602
 30
0.0
  0
VERTEX
  8
LINES
 10
15.969
 20
11.682
 30
0.0
  0
VERTEX
  8
LINES
 10
16.651
 20
11.708
 30
0.0
  0
VERTEX
  8
LINES
 10
17.332
 20
11.706
 30
0.0
  0
VERTEX
  8
LINES
 10
17.703
 20
11.691
 30
0.0
  0
VERTEX
  8
LINES
 10
18.073
 20
11.658
 30
0.0
  0
VERTEX
  8
LINES
 10
18.192
 20
11.635
 30
0.0
  0
VERTEX
  8
LINES
 10
18.24
 20
11.601
 30
0.0
  0
VERTEX
  8
LINES
 10
18.268
 20
11.561
 30
0.0
  0
VERTEX
  8
LINES
 10
18.283
 20
11.439
 30
0.0
  0
VERTEX
  8
LINES
 10
18.282
 20
11.318
 30
0.0
  0
VERTEX
  8
LINES
 10
18.232
 20
11.215
 30
0.0
  0
VERTEX
  8
LINES
 10
18.046
 20
10.963
 30
0.0
  0
VERTEX
  8
LINES
 10
17.929
 20
10.823
 30
0.0
  0
VERTEX
  8
LINES
 10
17.227
 20
10.045
 30
0.0
  0
VERTEX
  8
LINES
 10
17.446
 20
9.999
 30
0.0
  0
VERTEX
  8
LINES
 10
17.75
 20
9.185
 30
0.0
  0
VERTEX
  8
LINES
 10
17.92
 20
8.748
 30
0.0
  0
VERTEX
  8
LINES
 10
18.068
 20
8.411
 30
0.0
  0
VERTEX
  8
LINES
 10
18.229
 20
8.081
 30
0.0
  0
VERTEX
  8
LINES
 10
18.366
 20
7.832
 30
0.0
  0
VERTEX
  8
LINES
 10
18.366
 20
7.832
 30
0.0
  0
VERTEX
  8
LINES
 10
18.528
 20
7.581
 30
0.0
  0
VERTEX
  8
LINES
 10
18.675
 20
7.404
 30
0.0
  0
VERTEX
  8
LINES
 10
18.837
 20
7.242
 30
0.0
  0
VERTEX
  8
LINES
 10
18.986
 20
7.115
 30
0.0
  0
VERTEX
  8
LINES
 10
19.144
 20
6.998
 30
0.0
  0
VERTEX
  8
LINES
 10
19.218
 20
6.949
 30
0.0
  0
VERTEX
  8
LINES
 10
19.293
 20
6.901
 30
0.0
  0
VERTEX
  8
LINES
 10
19.502
 20
6.796
 30
0.0
  0
VERTEX
  8
LINES
 10
19.711
 20
6.693
 30
0.0
  0
VERTEX
  8
LINES
 10
20.132
 20
6.515
 30
0.0
  0
VERTEX
  8
LINES
 10
19.751
 20
5.336
 30
0.0
  0
VERTEX
  8
LINES
 10
19.751
 20
5.336
 30
0.0
  0
VERTEX
  8
LINES
 10
19.116
 20
3.65
 30
0.0
  0
VERTEX
  8
LINES
 10
18.935
 20
3.209
 30
0.0
  0
VERTEX
  8
LINES
 10
18.753
 20
2.755
 30
0.0
  0
VERTEX
  8
LINES
 10
18.362
 20
1.901
 30
0.0
  0
VERTEX
  8
LINES
 10
17.96
 20
1.052
 30
0.0
  0
VERTEX
  8
LINES
 10
17.96
 20
1.052
 30
0.0
  0
VERTEX
  8
LINES
 10
17.856
 20
0.826
 30
0.0
  0
VERTEX
  8
LINES
 10
17.503
 20
0.198
 30
0.0
  0
VERTEX
  8
LINES
 10
16.88
 20
0.565
 30
0.0
  0
VERTEX
  8
LINES
 10
16.406
 20
0.822
 30
0.0
  0
VERTEX
  8
LINES
 10
15.925
 20
1.065
 30
0.0
  0
VERTEX
  8
LINES
 10
15.446
 20
1.287
 30
0.0
  0
VERTEX
  8
LINES
 10
14.967
 20
1.504
 30
0.0
  0
VERTEX
  8
LINES
 10
14.401
 20
1.762
 30
0.0
  0
VERTEX
  8
LINES
 10
14.116
 20
1.885
 30
0.0
  0
VERTEX
  8
LINES
 10
13.915
 20
1.962
 30
0.0
  0
VERTEX
  8
LINES
 10
13.915
 20
1.962
 30
0.0
  0
VERTEX
  8
LINES
 10
13.826
 20
1.996
 30
0.0
  0
VERTEX
  8
LINES
 10
13.359
 20
2.117
 30
0.0
  0
VERTEX
  8
LINES
 10
12.997
 20
2.215
 30
0.0
  0
VERTEX
  8
LINES
 10
12.626
 20
2.293
 30
0.0
  0
VERTEX
  8
LINES
 10
12.251
 20
2.328
 30
0.0
  0
VERTEX
  8
LINES
 10
11.876
 20
2.325
 30
0.0
  0
VERTEX
  8
LINES
 10
11.634
 20
2.305
 30
0.0
  0
VERTEX
  8
LINES
 10
11.395
 20
2.264
 30
0.0
  0
VERTEX
  8
LINES
 10
10.957
 20
2.145
 30
0.0
  0
VERTEX
  8
LINES
 10
10.957
 20
2.145
 30
0.0
  0
VERTEX
  8
LINES
 10
10.696
 20
2.029
 30
0.0
  0
VERTEX
  8
LINES
 10
10.447
 20
1.892
 30
0.0
  0
VERTEX
  8
LINES
 10
10.274
 20
1.746
 30
0.0
  0
VERTEX
  8
LINES
 10
10.126
 20
1.579
 30
0.0
  0
VERTEX
  8
LINES
 10
10.024
 20
1.434
 30
0.0
  0
VERTEX
  8
LINES
 10
9.938
 20
1.279
 30
0.0
  0
VERTEX
  8
LINES
 10
9.864
 20
1.085
 30
0.0
  0
VERTEX
  8
LINES
 10
9.858
 20
1.055
 30
0.0
  0
VERTEX
  8
LINES
 10
9.858
 20
1.055
 30
0.0
  0
VERTEX
  8
LINES
 10
9.82
 20
0.874
 30
0.0
  0
VERTEX
  8
LINES
 10
9.798
 20
0.748
 30
0.0
  0
SEQEND
  0
ENDSEC
  0
EOF
